<svg viewBox="0 0 640 480" xmlns="http://www.w3.org/2000/svg" xmlns:svg="http://www.w3.org/2000/svg" version="1.1" xml:space="preserve">
 <desc>Created with Fabric.js 3.6.6</desc>

 <g class="layer">
  <title>Layer 1</title>
  <g id="svg_31">
   <g id="svg_32" transform="matrix(1.68982 0 0 1.65865 442.452 186.296)">
    <path d="m61.61,135.28c0.69,3.39 0.36,6.86 -0.98,10.31c-2.4,6.18 -7.97,12.05 -17.02,17.94c-5.67,3.69 -9.43,7.59 -10.87,11.3c-0.88,2.27 -0.89,4.56 -0.04,6.79c3.15,8.19 17.84,15.95 32.05,13.68c7.31,-1.16 12.21,-4.81 14.55,-10.85c0.9,-2.31 1.43,-4.97 1.58,-7.9c0.39,-7.4 1.44,-13.22 3.22,-17.81c0,0 0,0 0.01,-0.01c1.88,-4.83 4.65,-8.41 8.23,-10.63c10.52,-6.48 24.84,-0.19 41.43,7.1c6.66,2.92 14.13,6.2 21.66,8.72c0.5,-4.42 0.93,-9 1.35,-13.6c1.35,-14.56 2.73,-29.56 6.72,-39.8c2.67,-6.86 6.37,-11.24 11.32,-13.36c7.83,-3.36 17.55,-0.33 29.72,9.28c6.53,5.16 16.51,9.57 27.02,1.27c4.1,-3.24 7.48,-7.9 9.51,-13.11c2.34,-6.03 2.59,-12.11 0.66,-16.26c-3.69,-7.91 -14.32,-7.55 -22.59,-5.86c-16.84,3.46 -25.75,2.4 -29.81,-3.55c-3.67,-5.41 -1.24,-11.66 -0.44,-13.72c1.56,-4.02 4.34,-8.94 7.68,-14.29c-16.67,6.55 -36.03,19.64 -44.6,33.85l0,0c-11.19,-18.56 -40.81,-35.23 -58.76,-37.87c-44.61,-7.74 -83.76,13.9 -96.99,61.61c23.29,5.45 61.39,17.26 65.39,36.77z" fill="rgb(246,187,0)" fill-rule="nonzero" id="svg_33" stroke-dashoffset="0" stroke-miterlimit="4" transform="translate(-217.64 -141.09)"/>
   </g>
   <g id="svg_34" transform="matrix(1.68982 0 0 1.65865 366.748 246.72)">
    <path d="m52.08,137.23c1.37,6.69 -6.73,13.57 -13.77,18.16c-18.17,11.81 -17,23.69 -14.68,29.72c5.13,13.35 25.07,22.6 42.65,19.8c14.67,-2.34 23.54,-12.5 24.31,-27.88c0.58,-11.25 2.89,-18.2 6.87,-20.66c6.16,-3.8 18.91,1.8 32.4,7.73c7.37,3.24 15.65,6.86 24.18,9.59c0.07,-0.23 0.13,-0.46 0.21,-0.69c0.34,-0.86 0.82,-1.64 1.38,-2.37c-0.46,-1.35 -0.66,-2.8 -0.48,-4.29c0.1,-0.8 0.19,-1.61 0.28,-2.42c-7.54,-2.52 -15,-5.8 -21.66,-8.72c-16.59,-7.29 -30.91,-13.58 -41.43,-7.1c-3.58,2.22 -6.36,5.8 -8.24,10.63c0,0.01 0,0.01 0,0.01c-1.78,4.59 -2.84,10.41 -3.22,17.81c-0.15,2.93 -0.68,5.59 -1.58,7.9c-2.35,6.04 -7.24,9.69 -14.56,10.85c-14.2,2.27 -28.89,-5.49 -32.04,-13.68c-0.86,-2.23 -0.84,-4.52 0.04,-6.8c1.44,-3.7 5.2,-7.6 10.87,-11.29c9.05,-5.89 14.61,-11.76 17.02,-17.95c1.34,-3.44 1.67,-6.91 0.97,-10.3c-3.99,-19.51 -42.1,-31.32 -65.39,-36.77c-0.32,1.17 -0.65,2.35 -0.94,3.56c-0.48,1.96 -0.88,3.92 -1.26,5.88c32.82,7.6 55.98,19.05 58.07,29.28z" fill="rgb(255,255,255)" fill-rule="nonzero" id="svg_35" stroke-dashoffset="0" stroke-miterlimit="4" transform="translate(-172.84 -177.52)"/>
   </g>
   <g id="svg_36" transform="matrix(1.68982 0 0 1.65865 381.077 331.08)">
    <path d="m110.98,273.6c10.2,-3.01 21.02,7.19 28.27,15.13c7.98,8.74 15.7,11.1 22.92,7.03c4.33,-2.44 8.26,-7.35 10.52,-13.15c2.28,-5.87 2.73,-11.83 1.27,-16.8c-3.05,-10.39 -13.36,-12 -21.47,-11.52c-9.85,0.57 -21.76,0.21 -26.57,-7.69c-3.44,-5.65 -1.57,-12.14 0.13,-16.53c2.44,-6.27 6.82,-13.63 11.06,-20.75c5.22,-8.79 10.62,-17.87 14.17,-26.99c1.11,-2.84 1.97,-5.56 2.58,-8.08c0.05,-0.19 0.12,-0.37 0.18,-0.56c-8.53,-2.73 -16.81,-6.35 -24.18,-9.59c-13.49,-5.93 -26.24,-11.53 -32.4,-7.73c-3.98,2.46 -6.29,9.41 -6.87,20.67c-0.77,15.37 -9.64,25.53 -24.31,27.87c-17.59,2.8 -37.52,-6.45 -42.65,-19.8c-2.32,-6.03 -3.49,-17.91 14.67,-29.72c7.05,-4.59 15.15,-11.47 13.78,-18.16c-2.09,-10.23 -25.25,-21.68 -58.07,-29.28c-14.22,74.1 41.96,144.13 104.08,182.3c0.42,-1.34 0.85,-2.63 1.31,-3.82c1.02,-2.62 4.13,-10.61 11.58,-12.83z" fill="rgb(12,150,228)" fill-rule="nonzero" id="svg_37" stroke-dashoffset="0" stroke-miterlimit="4" transform="translate(-181.31 -228.38)"/>
   </g>
   <g id="svg_38" transform="matrix(1.68982 0 0 1.65865 584.902 166.79)">
    <path d="m189.33,68.93c4.06,5.95 12.97,7.01 29.81,3.55c8.27,-1.69 18.9,-2.05 22.59,5.86c1.93,4.15 1.68,10.23 -0.66,16.26c-2.03,5.21 -5.41,9.87 -9.51,13.11c-10.51,8.3 -20.49,3.89 -27.02,-1.27c-12.17,-9.61 -21.89,-12.64 -29.72,-9.28c-4.95,2.12 -8.65,6.49 -11.32,13.36c-3.99,10.24 -5.37,25.24 -6.72,39.8c-0.42,4.6 -0.85,9.18 -1.35,13.6c-0.09,0.81 -0.18,1.62 -0.28,2.42c-0.18,1.49 0.02,2.94 0.48,4.29c0.81,-1.06 1.81,-1.97 3.01,-2.62c1.91,-1.05 4.11,-1.41 6.23,-1.07c0.61,-5.08 1.1,-10.38 1.6,-15.72c1.79,-19.47 3.82,-41.54 12.19,-45.13c4.13,-1.77 11,0.99 19.86,7.98c12.91,10.22 27.15,10.68 39.07,1.27c5.44,-4.3 9.9,-10.41 12.54,-17.22c3.34,-8.57 3.49,-17.27 0.41,-23.88c-2.87,-6.18 -11.03,-15.86 -33.35,-11.28c-17.5,3.59 -19.74,0.62 -19.83,0.49c-2.05,-3.03 7.36,-17.43 13.37,-26.55c-4.21,0.62 -9.06,2.02 -14.16,4.02c-3.33,5.35 -6.11,10.27 -7.68,14.29c-0.8,2.06 -3.23,8.31 0.44,13.72z" fill="rgb(255,255,255)" fill-rule="nonzero" id="svg_39" stroke-dashoffset="0" stroke-miterlimit="4" transform="translate(-301.94 -129.32)"/>
   </g>
   <g id="svg_40" transform="matrix(1.68982 0 0 1.65865 643.37 203.562)">
    <path d="m197.36,63.45c0.08,0.13 2.33,3.1 19.83,-0.49c22.32,-4.58 30.48,5.1 33.35,11.28c3.07,6.61 2.92,15.31 -0.41,23.89c-2.65,6.8 -7.1,12.91 -12.54,17.21c-11.92,9.41 -26.16,8.95 -39.08,-1.27c-8.85,-6.99 -15.72,-9.75 -19.85,-7.98c-8.37,3.59 -10.4,25.66 -12.2,45.13c-0.49,5.34 -0.99,10.65 -1.59,15.72c0.54,0.09 1.07,0.21 1.6,0.39c10.22,3.51 19.9,8.68 28.44,13.24c10.14,5.41 21.65,11.55 25.44,9.17c0.26,-0.16 1.05,-0.66 1.86,-2.73c1.34,-3.44 1.87,-8.95 1.58,-16.38c-0.22,-5.36 0.49,-10.19 2.09,-14.31c3.09,-7.92 9.32,-13.25 18.04,-15.41c16.56,-4.1 38.52,5.18 45.17,19.11c2.67,5.59 2.91,11.57 0.68,17.31c-2.07,5.3 -6.09,10.17 -12.3,14.88c-7.66,5.8 -9.96,9.64 -10.65,11.41c-0.44,1.13 -0.39,1.79 -0.31,2.2c0.71,3.8 8.22,7.44 17.43,10.7c22.8,-34.11 34.58,-73.78 24.73,-114.45c-12.24,-50.2 -52.23,-73.1 -97.94,-65.17c0,0 0,0 0,0c-6.01,9.12 -15.42,23.52 -13.37,26.55z" fill="rgb(30,183,66)" fill-rule="nonzero" id="svg_41" stroke-dashoffset="0" stroke-miterlimit="4" transform="translate(-336.54 -151.5)"/>
   </g>
   <g id="svg_42" transform="matrix(1.68982 0 0 1.65865 569.305 365.679)">
    <path d="m113.75,282.92c1.66,-0.49 6.78,-0.28 18.32,12.36c15.01,16.43 28.29,12.66 34.87,8.95c6.32,-3.56 11.72,-10.16 14.81,-18.1c3.05,-7.86 3.6,-16.05 1.54,-23.07c-3.74,-12.7 -15.17,-19.43 -31.37,-18.48c-13.82,0.8 -16.98,-1.86 -17.7,-3.04c-2.51,-4.13 4.79,-16.4 11.24,-27.25c6.93,-11.65 14.71,-24.75 17.85,-37.76c9.48,3.25 18.75,8.2 27.02,12.61c14.87,7.94 26.62,14.2 35.18,8.84c6.05,-3.79 8.58,-12.6 8,-27.73c-0.45,-11.01 3.85,-17.7 12.75,-19.91c12.15,-3.01 29.34,3.99 34.06,13.87c3.17,6.64 0.24,13.45 -8.72,20.25c-11.2,8.47 -15.99,16.05 -14.64,23.16c1.44,7.74 9.65,12.84 21.17,17.17c2.01,-2.72 3.95,-5.48 5.81,-8.28c-9.21,-3.25 -16.72,-6.9 -17.43,-10.7c-0.08,-0.4 -0.13,-1.07 0.31,-2.19c0.69,-1.77 2.99,-5.61 10.65,-11.41c6.21,-4.71 10.23,-9.58 12.3,-14.89c2.23,-5.73 1.99,-11.72 -0.68,-17.3c-6.65,-13.93 -28.61,-23.22 -45.17,-19.11c-8.72,2.16 -14.95,7.48 -18.04,15.4c-1.6,4.13 -2.31,8.95 -2.09,14.32c0.29,7.42 -0.24,12.93 -1.58,16.37c-0.81,2.08 -1.6,2.58 -1.86,2.74c-3.8,2.38 -15.3,-3.76 -25.44,-9.18c-8.54,-4.56 -18.22,-9.72 -28.44,-13.23c-0.53,-0.18 -1.06,-0.3 -1.6,-0.39c-2.13,-0.34 -4.32,0.01 -6.24,1.06c-1.19,0.66 -2.19,1.57 -3,2.63c-0.56,0.72 -1.04,1.51 -1.38,2.37c-0.09,0.22 -0.14,0.46 -0.21,0.69c-0.06,0.18 -0.13,0.37 -0.18,0.56c-0.61,2.52 -1.47,5.24 -2.58,8.07c-3.55,9.13 -8.95,18.21 -14.17,27c-4.24,7.12 -8.62,14.48 -11.06,20.75c-1.7,4.38 -3.57,10.87 -0.13,16.52c4.81,7.9 16.72,8.26 26.57,7.69c8.11,-0.47 18.42,1.14 21.47,11.52c1.46,4.97 1.01,10.94 -1.27,16.81c-2.26,5.79 -6.19,10.71 -10.52,13.15c-7.22,4.07 -14.94,1.7 -22.92,-7.04c-7.25,-7.93 -18.07,-18.14 -28.27,-15.12c-7.45,2.22 -10.56,10.2 -11.58,12.83c-0.46,1.19 -0.89,2.48 -1.31,3.81c2.87,1.76 5.75,3.45 8.64,5.08c1.81,-6.57 4.06,-11.52 7.02,-12.4z" fill="rgb(255,255,255)" fill-rule="nonzero" id="svg_43" stroke-dashoffset="0" stroke-miterlimit="4" transform="translate(-292.71 -249.24)"/>
   </g>
   <g id="svg_44" transform="matrix(1.68982 0 0 1.65865 568.393 379.778)">
    <path d="m278.13,224.79c-11.51,-4.33 -19.73,-9.43 -21.17,-17.17c-1.35,-7.11 3.45,-14.69 14.64,-23.16c8.96,-6.8 11.9,-13.61 8.72,-20.25c-4.72,-9.88 -21.91,-16.87 -34.06,-13.86c-8.9,2.2 -13.19,8.89 -12.75,19.91c0.59,15.12 -1.95,23.93 -7.99,27.72c-8.57,5.36 -20.32,-0.9 -35.19,-8.84c-8.27,-4.41 -17.54,-9.36 -27.02,-12.61c-3.13,13.02 -10.92,26.11 -17.84,37.76c-6.46,10.85 -13.76,23.13 -11.25,27.25c0.72,1.18 3.89,3.84 17.71,3.04c16.19,-0.95 27.63,5.78 31.36,18.48c2.06,7.02 1.52,15.22 -1.54,23.07c-3.09,7.94 -8.49,14.54 -14.8,18.1c-6.59,3.71 -19.87,7.48 -34.88,-8.95c-11.54,-12.63 -16.65,-12.85 -18.32,-12.36c-2.96,0.88 -5.21,5.83 -7.02,12.4c15.21,8.56 30.6,15.16 45.24,19.4c43.54,-12.6 93.73,-46.08 126.16,-89.93z" fill="rgb(255,51,52)" fill-rule="nonzero" id="svg_45" stroke-dashoffset="0" stroke-miterlimit="4" transform="translate(-292.16 -257.74)"/>
   </g>
  </g>
 </g>
</svg>